<svg width="74" height="20" viewBox="0 0 74 20" fill="none" xmlns="http://www.w3.org/2000/svg">
<path d="M60.2614 4.69798C59.9134 4.58198 59.9101 4.39465 60.2681 4.27532L72.9928 0.0339826C73.3454 -0.0833507 73.5474 0.113983 73.4488 0.459316L69.8128 13.1833C69.7128 13.536 69.5094 13.548 69.3601 13.2133L66.9641 7.82132L70.9641 2.48798L65.6308 6.48798L60.2614 4.69798V4.69798Z" fill="#7B61FF"/>
<path d="M0.804032 6.59304V4.81818H9.16625V6.59304H6.04906V15H3.92122V6.59304H0.804032ZM10.2706 15V7.36364H12.3239V8.69602H12.4035C12.5427 8.22206 12.7763 7.86411 13.1044 7.62216C13.4326 7.37689 13.8104 7.25426 14.238 7.25426C14.344 7.25426 14.4584 7.26089 14.581 7.27415C14.7036 7.28741 14.8114 7.30563 14.9042 7.32883V9.2081C14.8047 9.17827 14.6672 9.15175 14.4915 9.12855C14.3159 9.10535 14.1551 9.09375 14.0093 9.09375C13.6977 9.09375 13.4193 9.1617 13.174 9.29759C12.9321 9.43016 12.7399 9.61577 12.5973 9.8544C12.4581 10.093 12.3885 10.3681 12.3885 10.6797V15H10.2706ZM23.9109 7.36364L21.2411 15H18.8548L16.185 7.36364H18.4223L20.0082 12.8274H20.0877L21.6687 7.36364H23.9109ZM27.6726 4.81818V15H25.5547V4.81818H27.6726ZM29.5811 6.59304V4.81818H37.9434V6.59304H34.8262V15H32.6983V6.59304H29.5811ZM39.0477 15V7.36364H41.101V8.69602H41.1806C41.3198 8.22206 41.5534 7.86411 41.8816 7.62216C42.2097 7.37689 42.5875 7.25426 43.0151 7.25426C43.1211 7.25426 43.2355 7.26089 43.3581 7.27415C43.4807 7.28741 43.5885 7.30563 43.6813 7.32883V9.2081C43.5818 9.17827 43.4443 9.15175 43.2686 9.12855C43.093 9.10535 42.9322 9.09375 42.7864 9.09375C42.4748 9.09375 42.1964 9.1617 41.9512 9.29759C41.7092 9.43016 41.517 9.61577 41.3745 9.8544C41.2352 10.093 41.1656 10.3681 41.1656 10.6797V15H39.0477ZM45.3363 15V7.36364H47.4542V15H45.3363ZM46.4002 6.37926C46.0853 6.37926 45.8152 6.27486 45.5898 6.06605C45.3677 5.85393 45.2567 5.60038 45.2567 5.3054C45.2567 5.01373 45.3677 4.76349 45.5898 4.55469C45.8152 4.34257 46.0853 4.23651 46.4002 4.23651C46.7151 4.23651 46.9835 4.34257 47.2056 4.55469C47.431 4.76349 47.5436 5.01373 47.5436 5.3054C47.5436 5.60038 47.431 5.85393 47.2056 6.06605C46.9835 6.27486 46.7151 6.37926 46.4002 6.37926ZM49.7505 15V4.81818H51.8684V8.64631H51.933C52.0258 8.44081 52.1601 8.23201 52.3357 8.01989C52.5147 7.80445 52.7467 7.62547 53.0317 7.48295C53.3201 7.33712 53.678 7.2642 54.1056 7.2642C54.6624 7.2642 55.1761 7.41004 55.6468 7.7017C56.1174 7.99006 56.4936 8.4259 56.7753 9.00923C57.0571 9.58925 57.1979 10.3168 57.1979 11.1918C57.1979 12.0436 57.0604 12.7628 56.7853 13.3494C56.5135 13.9328 56.1423 14.3752 55.6717 14.6768C55.2043 14.9751 54.6806 15.1243 54.1006 15.1243C53.6896 15.1243 53.34 15.0563 53.0516 14.9205C52.7666 14.7846 52.5329 14.6139 52.3506 14.4084C52.1683 14.1996 52.0291 13.9891 51.933 13.777H51.8386V15H49.7505ZM51.8236 11.1818C51.8236 11.6359 51.8866 12.032 52.0126 12.37C52.1385 12.7081 52.3208 12.9716 52.5594 13.1605C52.7981 13.3461 53.0881 13.4389 53.4295 13.4389C53.7742 13.4389 54.0658 13.3445 54.3045 13.1555C54.5431 12.9633 54.7237 12.6982 54.8464 12.3601C54.9723 12.0187 55.0353 11.6259 55.0353 11.1818C55.0353 10.741 54.974 10.3532 54.8513 10.0185C54.7287 9.68371 54.5481 9.42187 54.3094 9.23295C54.0708 9.04403 53.7775 8.94957 53.4295 8.94957C53.0848 8.94957 52.7931 9.04072 52.5545 9.22301C52.3191 9.4053 52.1385 9.66383 52.0126 9.99858C51.8866 10.3333 51.8236 10.7277 51.8236 11.1818ZM62.6512 15.1491C61.8657 15.1491 61.1896 14.9901 60.6228 14.6719C60.0594 14.3504 59.6252 13.8963 59.3203 13.3097C59.0153 12.7197 58.8629 12.022 58.8629 11.2166C58.8629 10.4311 59.0153 9.74171 59.3203 9.14844C59.6252 8.55516 60.0544 8.0928 60.6079 7.76136C61.1647 7.42992 61.8176 7.2642 62.5667 7.2642C63.0705 7.2642 63.5395 7.34541 63.9737 7.50781C64.4112 7.6669 64.7923 7.9072 65.1171 8.22869C65.4453 8.55019 65.7005 8.95455 65.8828 9.44176C66.065 9.92566 66.1562 10.4924 66.1562 11.142V11.7237H59.708V10.4112H64.1626C64.1626 10.1063 64.0963 9.83617 63.9637 9.60085C63.8311 9.36553 63.6472 9.18158 63.4119 9.04901C63.1799 8.91312 62.9097 8.84517 62.6015 8.84517C62.28 8.84517 61.995 8.91974 61.7464 9.06889C61.5011 9.21473 61.3089 9.41193 61.1697 9.66051C61.0305 9.90578 60.9592 10.1792 60.9559 10.4808V11.7287C60.9559 12.1065 61.0255 12.433 61.1647 12.7081C61.3072 12.9832 61.5078 13.1953 61.7663 13.3445C62.0248 13.4936 62.3314 13.5682 62.686 13.5682C62.9213 13.5682 63.1368 13.535 63.3323 13.4688C63.5279 13.4025 63.6953 13.303 63.8345 13.1705C63.9737 13.0379 64.0797 12.8755 64.1526 12.6832L66.1114 12.8125C66.012 13.2831 65.8082 13.6941 65.4999 14.0455C65.195 14.3935 64.8006 14.6652 64.3167 14.8608C63.8361 15.053 63.281 15.1491 62.6512 15.1491Z" fill="white"/>
</svg>
